<svg xmlns="http://www.w3.org/2000/svg" viewBox="0 0 72 72" xml:space="preserve"><path d="M32.6 72C18.2 63.4 0 51 0 28.9V5.7C6.6 3.2 16.9 0 32.6 0c11.1-.1 22.2 1.8 32.6 5.7v23.2c0 22.2-18.9 35-32.6 43.1z" fill="#fff"/><path d="M42.4 41.8c0-.5.4-1.3.4-2s-1-1-1.8-1.1c-1.6-.2-2.2-.1-2.2-.5.1-.4.2-.7.5-.9.5-.6 1.2-.9 2-1 .8-.1 1.7-.2 2.5-.2s1.6.1 2.4.2c1 .2 1.2.6 1.2 1.1v.5c-.1.5-.6.9-1.1.9l-.5.1c-.6 0-1.1.3-1.3.8-.5 1.4-1.3 2.4-1.9 2.4-.2 0-.3-.1-.2-.3zm1.4-21.9c-.2 0-.3-.2-.2-.4.1-.4.3-.7.5-1 .8-1.1 2-2.4 2.3-2.4.3.1.5.3.6.6.2.4.3.8.3 1.2 0 1.3-.5 2.6-1.3 3.6-.7-.7-1.4-1.2-2.2-1.6zm-23.9 2.6c.5-.1.9-.4 1.2-.9 1.2-1.4 2.5-1.6 2.5-2.1 0-.3-.2-.6-.3-.8-1-1.5-1.9-3.1-2.7-4.7-.2-.4-.6-.7-1-.9-.5.1-1 .5-1.2 1-.4.6-.7 1.3-.8 2 0 1.4.3 2.7.7 4 .4 1.3 1 2.4 1.6 2.4zm14.9 4.8c-.2-1.3-1.3-2.2-2.6-2.1-1.3 0-2.4.8-2.9 2 .4.9 1.2 1.6 2.1 1.8.2.1.4.1.4.2 0 .2-.2.3-.7.3-1.1.1-2.2-.4-3-1.2-.5.1-1 .2-1.5.2-.3 0-.6-.2-.7-.6 0-.3.1-.7.2-1l.3-.5c.4-1 1.1-1.9 2-2.4l.8-.5c.7-.4 1.6-.7 2.5-.6h.7c.8-.1 1.7.2 2.3.8 1.1.9 1.6 1.4 1.6 2 .1.7-.2 1.5-.6 2.1-.4.6-1 1-1.7 1.2-.1 0-.2 0-.2-.1v-.1c0-.1.1-.2.2-.2.4-.4.6-.8.8-1.3zM42 50.2c-1.1.2-2.2.3-3.3.2-3.7 0-4.3-.9-4.3-1.6 0-1.2 5.3-2 7.4-2s2.9.6 2.9 1.1c-.4 1.2-1.5 2.1-2.7 2.3zM20.6 61c3.8 2.9 7.8 5.6 12 8.1 0-3.6-.1-5.8 2.4-8.3l3-3.1c.4-.6 1-1 1.6-1.3.3 0 .3.1.3.4.1 1 .3 2.1.8 3 .5 1.1 1.5 1.9 2.7 2.1 10.5-8 19.3-18.3 19.3-33V7.4c-2.6-.9-13.2-5-30.1-5S5.1 6.6 2.5 7.4v21.5c0 6 1.5 11.8 4.5 17 .3-3 2.3-4.4 2.3-7.3 0-2-.6-3.3-.6-5 0-3.1 4.2-9.4 6.3-12 .1-.1.2-.2.4-.3.2 0 .3.1.4.2.1.3.3.5.5.5s.3-.1.3-.3v-.1c-.4-1.6-.7-3.3-.6-5 0-2.5.6-3 2.1-4.5.5-.6 1.2-1 2-1.1.8.1 1.5.5 1.9 1.1.9.9 1.7 1.9 2.5 2.9 0 .1.1.1.2.1.4 0 .8-.1 2.7-.1 3.8 0 7.6.4 11.3 1.4.7.3 1.3.5 2 .8.1 0 .2 0 .2-.1V17c-.2-.2-.3-.4-.4-.6 0-.1.1-.3.2-.3 2-1.1 3.7-1.9 5.2-1.9.9 0 1.3.8 1.7 1.6.4.7.6 1.4.6 2.2 0 1.6-.5 3.1-1.4 4.3.3.3.7.8 1 1.1.6.6.9 1.3 1 2.1 0 .4-.1.9-.2 1.3 0 .3-.2.5-.5.5s-.4-.3-.4-.6v-.2c0-1.6-1.2-2.9-2.7-3.2h-.2c-.8 0-1.6.3-2.1.9-.4.4-.7.9-.7 1.5.1.5.3 1 .6 1.5.2.4.7 1.3 1 1.8.2.4.5.6.9.6.9 0 1.6-.1 1.6-.4 0-.1 0-.1-.2-.1h-.2c-1.1 0-1.7-1.4-2.3-2.7.4-.5 1.1-.8 1.8-.8.9-.1 1.8.6 1.8 1.6v.1c0 .4-.1.7-.2 1.1 0 .1-.1.1-.1.2s.2.2.5.2l.4.1c.4.1.7.4.8.8.1.3.3.9.4 1 .3.7.5 1.5.5 2.3 0 .8-.1 1.5-.3 2.3-.3.8-.5 1.6-.6 2.5.1.1.1.3.2.4.3.6.4 1.3.4 2v.7c0 1.1-.4 2.1-1.1 3-.4.6-1 1.4-1.4 1.8-.2.3-.5.5-.9.5-.2 0-.4 0-.5-.1l-.9-.2c-.6-.2-1.1-.7-1.3-1.3V44c-.2-.5-.3-.8-.6-.8s-.5.2-.6.5c-.5 1-1.4 1.7-2.5 1.9l-1.8.4c-1 .3-2 .5-3 .5h-.5c-1.3-.1-2.5-.7-3.2-1.8-1.8-2.2-1.7-2.5-1.8-5.5.1-.3-.1-.7-.5-.7-.3 0-.4.6-.6 1.5-.1 1.1-.4 2.1-.9 2.1-.4 0-.8-.1-1.2-.3l-3.2-1c-1.2-.4-2.4-.7-2.8-1.8l-.8-1.9c0-.3-.2-.5-.5-.5-.2.1-.4.4-.4.7 0 .5-.1 1.1-.2 1.6 0 1.5-.6 2.9-1.5 4.1-.4.5-.8 1.1-1.2 1.7a6.62 6.62 0 0 0-1.4 4.9V51c0 3.5.9 5.2 6.9 10z" fill="#1e407c"/><path d="M48.5 29.7c.1.3.3.9.4 1 .3.7.5 1.5.5 2.3 0 .8-.1 1.5-.3 2.3-.3.8-.4 1.6-.5 2.5-.1-.2-1.9-3.3-2-3.6-.2-.2-.2-.5-.3-.8 0-.3.2-.6.5-.8.2-.1.5-.3.7-.4.7-.3 1.2-.9 1.2-1.7 0-.2-.1-.5-.2-.8zm-7.8 5c.1.2.2.5.2.7 0 .3-.1.7-.4.9l-.5.5c-.3.1-.5.3-.6.5-.3.3-.4.6-.5.9 0 .1 0 .1.1.2-.3-.2-.5-.6-.5-1 0-.3.1-.5.1-.8 0-.2-.1-.4-.1-.6-.5-1.7-1.3-3.7-1.9-5-.5-1.3-1-2.1-1.5-2.1-.3 0-.6.2-1 .2.7-.1 1.3-.5 1.7-1.1.5-.6.7-1.3.6-2.1 0-.3-.1-.7-.4-.9.7.8 1.3 1.8 1.8 2.9 1 2.3 2 4.9 2.9 6.8zM13.7 51v-1.5c-.1-1.7.4-3.5 1.4-4.9l1.2-1.7c.9-1.2 1.5-2.6 1.5-4.1 0-.5.1-1.1.2-1.6-.1-.3.1-.6.4-.7.3 0 .3.2.5.5l.8 1.9c.5 1.1 1.6 1.4 2.8 1.8l3.2 1.1c.4.1.8.2 1.2.2.5 0 .8-1.1.9-2.1.1-.9.2-1.5.6-1.5.3.1.5.4.5.7.1 3-.1 3.3 1.8 5.5.7 1.1 1.9 1.8 3.2 1.8-.6-.2-1-.9-.9-1.5v-1.1c0-.6.1-1.2.3-1.7.1-.3.3-.8.4-1.1.2-.3.2-.7.2-1-.1-.6-.2-1.2-.5-1.8-.2-.5-.4-1.2-.6-1.8-.7-1.9-1-2.3-3.2-2.6l-4.5-.6c-2.5-.4-4.5-.5-5.5-2.2-1.2-2-1.1-4.5-2.3-4.5-.6 0-.9.6-.9 1.5s.4 2.5.4 5.2c.2 1.7-.4 3.4-1.6 4.7-.3.4-.8 1.1-1.1 1.5-1 1.3-1.5 2-1.4 3.5.1 2.7.4 5.4 1 8.1zm25.6 9c.1-.9.5-2.5.5-3.1 0-.3-.1-.4-.3-.4-.6.3-1.2.7-1.6 1.3l-3 3.1c-2.4 2.5-2.3 4.6-2.3 8.2 2.7-1.6 5.2-3.2 7.1-4.5-.4-1.6-.5-3.2-.4-4.6z" fill="#96bee6"/></svg>